<?xml version="1.0" encoding="UTF-8" standalone="no"?>
<svg
   xmlns:dc="http://purl.org/dc/elements/1.1/"
   xmlns:cc="http://creativecommons.org/ns#"
   xmlns:rdf="http://www.w3.org/1999/02/22-rdf-syntax-ns#"
   xmlns:svg="http://www.w3.org/2000/svg"
   xmlns="http://www.w3.org/2000/svg"
   xmlns:xlink="http://www.w3.org/1999/xlink"
   xmlns:sodipodi="http://sodipodi.sourceforge.net/DTD/sodipodi-0.dtd"
   xmlns:inkscape="http://www.inkscape.org/namespaces/inkscape"
   width="128"
   height="128"
   viewBox="0 0 128 128"
   version="1.1"
   id="svg71"
   sodipodi:docname="applications-utilities.svg"
   inkscape:version="0.92.3 (2405546, 2018-03-11)">
  <metadata
     id="metadata75">
    <rdf:RDF>
      <cc:Work
         rdf:about="">
        <dc:format>image/svg+xml</dc:format>
        <dc:type
           rdf:resource="http://purl.org/dc/dcmitype/StillImage" />
      </cc:Work>
    </rdf:RDF>
  </metadata>
  <sodipodi:namedview
     pagecolor="#ffffff"
     bordercolor="#666666"
     borderopacity="1"
     objecttolerance="10"
     gridtolerance="10"
     guidetolerance="10"
     inkscape:pageopacity="0"
     inkscape:pageshadow="2"
     inkscape:window-width="1920"
     inkscape:window-height="1025"
     id="namedview73"
     showgrid="false"
     inkscape:zoom="1.84375"
     inkscape:cx="64"
     inkscape:cy="64"
     inkscape:window-x="0"
     inkscape:window-y="26"
     inkscape:window-maximized="1"
     inkscape:current-layer="svg71" />
  <defs
     id="defs38">
    <linearGradient
       inkscape:collect="always"
       id="linearGradient903">
      <stop
         style="stop-color:#00b5ed;stop-opacity:1;"
         offset="0"
         id="stop899" />
      <stop
         style="stop-color:#00b5ed;stop-opacity:0;"
         offset="1"
         id="stop901" />
    </linearGradient>
    <filter
       id="deepin-system-monitor-a"
       width="127.1%"
       height="127.1%"
       x="-13.6%"
       y="-13.6%"
       filterUnits="objectBoundingBox">
      <feOffset
         dy="2"
         in="SourceAlpha"
         result="shadowOffsetOuter1"
         id="feOffset2" />
      <feGaussianBlur
         in="shadowOffsetOuter1"
         result="shadowBlurOuter1"
         stdDeviation="3"
         id="feGaussianBlur4" />
      <feComposite
         in="shadowBlurOuter1"
         in2="SourceAlpha"
         operator="out"
         result="shadowBlurOuter1"
         id="feComposite6" />
      <feColorMatrix
         in="shadowBlurOuter1"
         result="shadowMatrixOuter1"
         values="0 0 0 0 0   0 0 0 0 0   0 0 0 0 0  0 0 0 0.2 0"
         id="feColorMatrix8" />
      <feMerge
         id="feMerge14">
        <feMergeNode
           in="shadowMatrixOuter1"
           id="feMergeNode10" />
        <feMergeNode
           in="SourceGraphic"
           id="feMergeNode12" />
      </feMerge>
    </filter>
    <radialGradient
       id="deepin-system-monitor-b"
       cx="45.142082"
       cy="24.928679"
       r="118.2478"
       fx="45.142082"
       fy="24.928679"
       gradientUnits="userSpaceOnUse"
       gradientTransform="translate(5,5)">
      <stop
         offset="0%"
         stop-color="#665AFF"
         id="stop17" />
      <stop
         offset="100%"
         stop-color="#4300D7"
         id="stop19" />
    </radialGradient>
    <radialGradient
       id="deepin-system-monitor-d"
       cx="45"
       cy="47.029197"
       r="48.43736"
       fx="45"
       fy="47.029197"
       gradientUnits="userSpaceOnUse">
      <stop
         offset="0%"
         stop-color="#00D8FF"
         id="stop22" />
      <stop
         offset="100%"
         stop-color="#3D00B5"
         id="stop24" />
    </radialGradient>
    <circle
       id="deepin-system-monitor-c"
       cx="45"
       cy="45"
       r="44.5" />
    <path
       id="deepin-system-monitor-g"
       d="M21.6415101,65.9342708 C22.0361545,66.7772181 22.7820013,67.9720458 23.905063,69.1714569 C25.8321092,71.2295099 28.2004315,72.4941741 31,72.4941741 C34.437931,72.4941741 36.95441,70.4653318 38.8358565,66.7815174 C40.1563519,64.1960282 40.9231786,61.6936562 42.45336,55.70156 C45.2520254,44.7421585 47.0781481,41.1666667 51,41.1666667 C54.8355212,41.1666667 56.3326267,44.6842105 58.1879427,55.5821649 C59.2096643,61.5836636 59.7640661,64.0886674 60.8698074,66.6866763 C62.4577857,70.4177315 64.8565545,72.4941741 68.3333333,72.4941741 C70.7204413,72.4941741 72.4957487,71.4613344 73.7010016,69.577642 C74.548786,68.2526378 75.0161012,66.8266813 75.6271848,64.216173 C75.6648665,64.0551995 75.701124,63.8990663 75.7737203,63.5859694 C76.7414182,59.4172901 77.3999736,58.254398 79,58.254398 C80.2102888,58.254398 80.7795992,59.0711763 81.6895964,62.0708646 C81.7368589,62.2266597 81.9644261,62.9853847 82.0299135,63.2006953 C82.1689804,63.6579213 82.2873321,64.0327339 82.4090182,64.3962265 C84.4046912,70.3575669 87.8599221,73.194453 95.1449525,72.4871539 C95.9695025,72.4070989 96.5730349,71.6737716 96.4929798,70.8492216 C96.4129248,70.0246716 95.6795975,69.4211392 94.8550475,69.5011943 C89.1183331,70.0581683 86.8425973,68.1896959 85.2538403,63.4438678 C85.1422211,63.1104464 85.0317347,62.7605426 84.9000905,62.327721 C84.8367583,62.1194964 84.6096088,61.3621637 84.5604036,61.1999654 C83.28836,57.0068374 82.0668755,55.254398 79,55.254398 C76.9627121,55.254398 75.4641879,56.2453569 74.465239,58.0093236 C73.7937542,59.1950467 73.443688,60.356227 72.8514239,62.9076011 C72.7786915,63.2212804 72.7431246,63.3744398 72.7061485,63.5323991 C71.6514835,68.037857 70.7196805,69.4941741 68.3333333,69.4941741 C64.4978121,69.4941741 63.0007066,65.9766302 61.1453907,55.0786759 C60.123669,49.0771771 59.5692672,46.5721734 58.4635259,43.9741645 C56.8755476,40.2431093 54.4767788,38.1666667 51,38.1666667 C47.562069,38.1666667 45.04559,40.1955089 43.1641435,43.8793233 C41.8436481,46.4648126 41.0768214,48.9671845 39.54664,54.9592807 C36.7479746,65.9186822 34.9218519,69.4941741 31,69.4941741 C29.1329018,69.4941741 27.5012241,68.6228719 26.094937,67.1209809 C25.5828529,66.5740836 25.1403847,65.9833979 24.7724379,65.3939563 C24.5562094,65.0475639 24.4175748,64.7884597 24.3584899,64.6622565 C24.0072329,63.9119832 23.1142661,63.5885167 22.3639928,63.9397737 C21.6137196,64.2910308 21.290253,65.1839975 21.6415101,65.9342708 Z" />
    <filter
       id="deepin-system-monitor-f"
       width="144%"
       height="195.9%"
       x="-22%"
       y="-47.9%"
       filterUnits="objectBoundingBox">
      <feMorphology
         in="SourceAlpha"
         operator="dilate"
         radius="1"
         result="shadowSpreadOuter1"
         id="feMorphology29" />
      <feOffset
         in="shadowSpreadOuter1"
         result="shadowOffsetOuter1"
         id="feOffset31" />
      <feGaussianBlur
         in="shadowOffsetOuter1"
         result="shadowBlurOuter1"
         stdDeviation="4.5"
         id="feGaussianBlur33" />
      <feColorMatrix
         in="shadowBlurOuter1"
         values="0 0 0 0 0.243137255   0 0 0 0 0.423529412   0 0 0 0 1  0 0 0 1 0"
         id="feColorMatrix35" />
    </filter>
    <radialGradient
       inkscape:collect="always"
       xlink:href="#linearGradient903"
       id="radialGradient905"
       cx="222.25"
       cy="55.029663"
       fx="222.25"
       fy="55.029663"
       r="44.224575"
       gradientUnits="userSpaceOnUse"
       gradientTransform="matrix(1.8094281,1.0652759e-7,-1.0797164e-7,1.8339561,-339.89539,-37.756756)" />
  </defs>
  <circle
     style="fill:url(#deepin-system-monitor-b);fill-rule:evenodd;filter:url(#deepin-system-monitor-a)"
     id="circle40"
     r="59"
     cy="64"
     cx="64" />
  <g
     style="fill:none;fill-rule:evenodd;filter:url(#deepin-system-monitor-a)"
     id="g53"
     transform="translate(19,19.5)">
    <mask
       fill="#fff"
       id="deepin-system-monitor-e">
      <use
         height="100%"
         width="100%"
         y="0"
         x="0"
         id="use42"
         xlink:href="#deepin-system-monitor-c" />
    </mask>
    <use
       height="100%"
       width="100%"
       y="0"
       x="0"
       style="fill:url(#deepin-system-monitor-d)"
       id="use45"
       xlink:href="#deepin-system-monitor-c" />
    <g
       style="stroke:#ffffff;stroke-opacity:0.2"
       id="g49"
       mask="url(#deepin-system-monitor-e)">
      <path
         inkscape:connector-curvature="0"
         id="path47"
         transform="translate(1,4.5)"
         d="m 22.5,0.5 h 43 M 14,7.5 H 75.5 M 8,13.5 h 74 m -77,7 h 79 m -83.5,6 h 88 m -88,7 h 88 M 0,39.5 h 89 m -88.5,7 h 88 m -87,6 H 87 m -82.5,7 h 80 M 8,65.5 h 73.5 m -68.5,7 h 62.5" />
    </g>
    <path
       style="stroke:#ffffff;stroke-opacity:0.2"
       inkscape:connector-curvature="0"
       id="path51"
       mask="url(#deepin-system-monitor-e)"
       d="m 83.5,68.5 v -48 m -78,48 v -48 m 6,53 V 13 m 7,71.5 V 7 m 6,78 V 5.5 m 7,82 v -85 m 6,84.5 V 0.5 m 7,87 v -87 m 6,86.5 V 0.5 m 7,87 v -85 m 6,83.5 V 5.5 m 7,79 V 7 m 6,66.5 V 13" />
  </g>
  <path
     style="opacity:0.497;fill:none;fill-rule:evenodd;stroke:#ffffff;stroke-width:3;stroke-linecap:round;filter:url(#deepin-system-monitor-a)"
     inkscape:connector-curvature="0"
     id="path55"
     d="M 84.192603,105.84265 C 99.475398,98.364191 110,82.661171 110,64.5 c 0,-25.405099 -20.594902,-46 -46,-46 -25.405099,0 -46,20.594901 -46,46 0,18.201157 10.570996,33.933325 25.90841,41.39193" />
  <path
     style="fill:none;fill-rule:evenodd;stroke:#ffffff;stroke-width:3;stroke-linecap:round;stroke-linejoin:round;filter:url(#deepin-system-monitor-a)"
     inkscape:connector-curvature="0"
     id="path57"
     d="M 64,18.5 C 38.594901,18.5 18,39.00254 18,64.293705 18,82.413235 28.570996,98.074849 43.90841,105.5" />
  <g
     style="fill:none;fill-rule:nonzero;filter:url(#deepin-system-monitor-a)"
     id="g63"
     transform="translate(5,5)">
    <use
       height="100%"
       width="100%"
       y="0"
       x="0"
       style="fill:#000000;filter:url(#deepin-system-monitor-f)"
       id="use59"
       xlink:href="#deepin-system-monitor-g" />
    <use
       height="100%"
       width="100%"
       y="0"
       x="0"
       style="fill:#ffffff"
       id="use61"
       xlink:href="#deepin-system-monitor-g" />
  </g>
  <rect
     style="fill:#0a8bff;fill-rule:evenodd;filter:url(#deepin-system-monitor-a)"
     id="rect65"
     rx="6"
     y="101.5"
     x="50.5"
     height="12"
     width="27" />
  <path
     style="fill:#ffffff;fill-rule:evenodd;filter:url(#deepin-system-monitor-a)"
     inkscape:connector-curvature="0"
     id="path67"
     d="m 57.89,111.68 c 0.96,0 1.75,-0.38 2.36,-1.09 l -0.78,-0.92 c -0.4,0.43 -0.9,0.73 -1.53,0.73 -1.17,0 -1.93,-0.97 -1.93,-2.58 0,-1.59 0.84,-2.55 1.96,-2.55 0.56,0 0.99,0.26 1.36,0.62 l 0.78,-0.94 c -0.48,-0.5 -1.23,-0.95 -2.17,-0.95 -1.87,0 -3.44,1.43 -3.44,3.87 0,2.47 1.52,3.81 3.39,3.81 z m 3.55,-0.14 v -7.4 h 2.43 c 1.64,0 2.9,0.57 2.9,2.32 0,1.69 -1.27,2.45 -2.86,2.45 h -0.99 v 2.63 z m 1.48,-3.8 h 0.89 c 1.02,0 1.51,-0.43 1.51,-1.28 0,-0.86 -0.54,-1.15 -1.56,-1.15 h -0.84 z m 8.03,3.94 c 1.81,0 2.86,-1.01 2.86,-3.47 v -4.07 h -1.42 v 4.2 c 0,1.54 -0.56,2.06 -1.44,2.06 -0.87,0 -1.4,-0.52 -1.4,-2.06 v -4.2 h -1.48 v 4.07 c 0,2.46 1.08,3.47 2.88,3.47 z" />
  <circle
     style="opacity:0.20499998;fill:url(#radialGradient905);fill-opacity:1;stroke:none;stroke-width:1.5;stroke-linecap:round;stroke-miterlimit:4;stroke-dasharray:none;stroke-opacity:1"
     id="path897"
     cx="62.25"
     cy="63.165257"
     r="44.224575" />
</svg>
