<?xml version="1.0" encoding="UTF-8" standalone="no"?>
<svg
   xmlns:dc="http://purl.org/dc/elements/1.1/"
   xmlns:cc="http://creativecommons.org/ns#"
   xmlns:rdf="http://www.w3.org/1999/02/22-rdf-syntax-ns#"
   xmlns:svg="http://www.w3.org/2000/svg"
   xmlns="http://www.w3.org/2000/svg"
   xmlns:xlink="http://www.w3.org/1999/xlink"
   xmlns:sodipodi="http://sodipodi.sourceforge.net/DTD/sodipodi-0.dtd"
   xmlns:inkscape="http://www.inkscape.org/namespaces/inkscape"
   width="128px"
   height="128px"
   viewBox="0 0 128 128"
   version="1.1"
   id="svg54"
   sodipodi:docname="evolution-2.8.svg"
   inkscape:version="0.92.3 (2405546, 2018-03-11)">
  <metadata
     id="metadata58">
    <rdf:RDF>
      <cc:Work
         rdf:about="">
        <dc:format>image/svg+xml</dc:format>
        <dc:type
           rdf:resource="http://purl.org/dc/dcmitype/StillImage" />
        <dc:title>deepin-movie</dc:title>
      </cc:Work>
    </rdf:RDF>
  </metadata>
  <sodipodi:namedview
     pagecolor="#ffffff"
     bordercolor="#666666"
     borderopacity="1"
     objecttolerance="10"
     gridtolerance="10"
     guidetolerance="10"
     inkscape:pageopacity="0"
     inkscape:pageshadow="2"
     inkscape:window-width="1920"
     inkscape:window-height="1025"
     id="namedview56"
     showgrid="false"
     inkscape:zoom="3.6875"
     inkscape:cx="87.950249"
     inkscape:cy="50.630469"
     inkscape:window-x="0"
     inkscape:window-y="26"
     inkscape:window-maximized="1"
     inkscape:current-layer="svg54"
     showguides="true"
     inkscape:guide-bbox="true">
    <sodipodi:guide
       position="64.238281,105.27539"
       orientation="0,1"
       id="guide1109"
       inkscape:locked="false" />
    <sodipodi:guide
       position="64.622369,21.093355"
       orientation="1,0"
       id="guide1111"
       inkscape:locked="false" />
  </sodipodi:namedview>
  <!-- Generator: Sketch 46.2 (44496) - http://www.bohemiancoding.com/sketch -->
  <title
     id="title2">deepin-movie</title>
  <desc
     id="desc4">Created with Sketch.</desc>
  <defs
     id="defs31">
    <linearGradient
       inkscape:collect="always"
       id="linearGradient873">
      <stop
         style="stop-color:#eb00b4;stop-opacity:1"
         offset="0"
         id="stop869" />
      <stop
         style="stop-color:#ff3107;stop-opacity:1"
         offset="1"
         id="stop871" />
    </linearGradient>
    <linearGradient
       inkscape:collect="always"
       id="linearGradient4593">
      <stop
         style="stop-color:#edf2f2;stop-opacity:1"
         offset="0"
         id="stop4589" />
      <stop
         style="stop-color:#f7ffff;stop-opacity:1"
         offset="1"
         id="stop4591" />
    </linearGradient>
    <linearGradient
       x1="93.8347384%"
       y1="4.01255662%"
       x2="14.5180885%"
       y2="89.332292%"
       id="linearGradient-1">
      <stop
         stop-color="#0BA2FF"
         offset="0%"
         id="stop6"
         style="stop-color:#88a2ff;stop-opacity:1" />
      <stop
         stop-color="#0067FF"
         offset="100%"
         id="stop8"
         style="stop-color:#4f67ff;stop-opacity:1" />
    </linearGradient>
    <linearGradient
       x1="76.6976986%"
       y1="0%"
       x2="50%"
       y2="100%"
       id="linearGradient-2">
      <stop
         stop-color="#4BB4FF"
         offset="0%"
         id="stop11"
         style="stop-color:#cab4ff;stop-opacity:1" />
      <stop
         stop-color="#005DDB"
         offset="100%"
         id="stop13"
         style="stop-color:#725ddb;stop-opacity:1" />
    </linearGradient>
    <linearGradient
       x1="86.1759334%"
       y1="46.5726412%"
       x2="8.98818374%"
       y2="51.7004395%"
       id="linearGradient-3">
      <stop
         stop-color="#2BB8FF"
         offset="0%"
         id="stop16"
         style="stop-color:#89b8ff;stop-opacity:1" />
      <stop
         stop-color="#537CFF"
         offset="100%"
         id="stop18"
         style="stop-color:#6e7cff;stop-opacity:1" />
    </linearGradient>
    <linearGradient
       x1="92.747777%"
       y1="73.7698407%"
       x2="16.099892%"
       y2="82.2916871%"
       id="linearGradient-4">
      <stop
         stop-color="#5BCBFF"
         offset="0%"
         id="stop21"
         style="stop-color:#aecbff;stop-opacity:1" />
      <stop
         stop-color="#0056CB"
         stop-opacity="0.469202899"
         offset="100%"
         id="stop23"
         style="stop-color:#6b56cb;stop-opacity:0.47058824" />
    </linearGradient>
    <linearGradient
       x1="50%"
       y1="0%"
       x2="50%"
       y2="100%"
       id="linearGradient-5">
      <stop
         stop-color="#FFFFFF"
         offset="0%"
         id="stop26" />
      <stop
         stop-color="#EFFAFD"
         offset="100%"
         id="stop28" />
    </linearGradient>
    <linearGradient
       inkscape:collect="always"
       xlink:href="#linearGradient4593"
       id="linearGradient4595"
       x1="98.179977"
       y1="109.783"
       x2="52.158112"
       y2="26.560135"
       gradientUnits="userSpaceOnUse" />
    <linearGradient
       inkscape:collect="always"
       xlink:href="#linearGradient4593"
       id="linearGradient4618"
       x1="89.04982"
       y1="113.45351"
       x2="54.886322"
       y2="27.758591"
       gradientUnits="userSpaceOnUse" />
    <linearGradient
       gradientTransform="matrix(0.12681407,0,0,0.12681407,-120.52203,-69.538977)"
       gradientUnits="userSpaceOnUse"
       y2="992"
       x2="32"
       y1="32"
       x1="32"
       id="lgrad">
      <stop
         id="stop2"
         stop-color="#f8f8f8"
         offset="0%" />
      <stop
         id="stop4"
         stop-color="#ccc"
         offset="100%"
         style="stop-color:#f2f2f2;stop-opacity:1" />
    </linearGradient>
    <radialGradient
       gradientTransform="matrix(0.12681407,0,0,0.12681407,-120.52203,-69.538977)"
       gradientUnits="userSpaceOnUse"
       r="440"
       cy="512"
       cx="512"
       fy="494.39999"
       fx="512"
       y2="100%"
       x2="0%"
       y1="0%"
       x1="0%"
       id="rgrad">
      <stop
         id="stop7"
         stop-color="#00f0ff"
         offset="0%" />
      <stop
         id="stop9"
         stop-color="#0070e0"
         offset="100%" />
    </radialGradient>
    <linearGradient
       inkscape:collect="always"
       xlink:href="#lgrad"
       id="linearGradient1099"
       x1="31.001699"
       y1="39.148422"
       x2="103.97516"
       y2="102.58592"
       gradientUnits="userSpaceOnUse" />
    <linearGradient
       inkscape:collect="always"
       xlink:href="#linearGradient873"
       id="linearGradient875"
       x1="68.257385"
       y1="110.36634"
       x2="53.525787"
       y2="22.724609"
       gradientUnits="userSpaceOnUse" />
  </defs>
  <circle
     style="fill:url(#linearGradient4595);fill-opacity:1;stroke:none;stroke-opacity:1"
     id="path4587"
     cx="64.238853"
     cy="64.91169"
     r="56.952057" />
  <path
     style="fill:url(#linearGradient875);fill-opacity:1;stroke-width:0.75210977"
     d="M 79.136719 9.7402344 L 54.998047 54.125 L 62.28125 59.732422 L 61.115234 59.761719 L 60.292969 65.9375 L 57.09375 60.708984 L 57.267578 60.390625 L 56.570312 59.853516 L 33.724609 22.515625 L 25.677734 25.833984 L 20.853516 33.291016 L 37.929688 61.199219 L 18.087891 97.683594 L 31.408203 107.9375 L 50.021484 73.714844 L 77.599609 118.78906 L 93.142578 112.38086 L 70.955078 76.119141 L 113 75.046875 L 115.2207 58.382812 L 70.423828 59.525391 L 92.080078 19.705078 L 79.136719 9.7402344 z "
     id="rect1065" />
  <rect
     transform="matrix(0.38121582,0.92448607,-0.85300099,0.52190929,0,0)"
     y="-89.097694"
     x="80.650894"
     height="52.243824"
     width="16.628338"
     id="rect1067"
     style="fill:#1993ff;fill-opacity:1;stroke-width:0.75683671" />
  <rect
     transform="matrix(-0.61002051,0.79238562,-0.8784872,-0.47776589,0,0)"
     y="-146.7959"
     x="24.28087"
     height="52.691666"
     width="16.673746"
     id="rect1071"
     style="fill:#1993ff;fill-opacity:1;stroke-width:0.75683671" />
  <rect
     transform="matrix(-0.99123633,-0.13210045,-0.0254862,-0.99967517,0,0)"
     y="-112.23776"
     x="-59.714451"
     height="54.12405"
     width="16.811398"
     id="rect1075"
     style="fill:#1993ff;fill-opacity:1;stroke-width:0.75683671" />
  <rect
     transform="matrix(0.99123633,0.13210045,0.02548621,0.99967517,0,0)"
     y="5.3880253"
     x="47.24828"
     height="50.402821"
     width="15.939809"
     id="rect1079"
     style="fill:#1993ff;fill-opacity:1;stroke-width:0.75683671"
     ry="0" />
  <path
     transform="matrix(0.61002051,-0.79238562,0.8784872,0.47776588,0,0)"
     style="fill:#1993ff;fill-opacity:1;stroke-width:0.75683671"
     d="m -52.293176,46.851474 16.676755,-3.835578 0,54.12405 h -16.811397 z"
     id="rect1085"
     inkscape:connector-curvature="0"
     sodipodi:nodetypes="ccccc" />
  <path
     style="fill:url(#linearGradient4618);fill-opacity:1.0;stroke:none;stroke-opacity:1"
     d="M 64.238281 7.9589844 A 56.952057 56.952057 0 0 0 7.2871094 64.912109 A 56.952057 56.952057 0 0 0 64.238281 121.86328 A 56.952057 56.952057 0 0 0 121.19141 64.912109 A 56.952057 56.952057 0 0 0 64.238281 7.9589844 z M 64.238281 15.146484 A 49.765614 49.765614 0 0 1 114.00391 64.912109 A 49.765614 49.765614 0 0 1 64.238281 114.67773 A 49.765614 49.765614 0 0 1 14.472656 64.912109 A 49.765614 49.765614 0 0 1 64.238281 15.146484 z "
     id="circle4597" />
  <path
     style="fill:url(#linearGradient1099);fill-opacity:1;stroke-width:1.06024098"
     d="M 106.42597,64.911133 A 42.18671,42.18671 0 0 1 64.239258,107.09784 42.18671,42.18671 0 0 1 22.052547,64.911133 42.18671,42.18671 0 0 1 64.239258,22.724422 42.18671,42.18671 0 0 1 106.42597,64.911133 Z"
     id="path1091" />
  <path
     style="fill:#000000;fill-opacity:0.04663213;stroke-width:1.06024098"
     d="M 64.238281 22.724609 A 42.18671 42.18671 0 0 0 22.052734 64.910156 A 42.18671 42.18671 0 0 0 64.238281 107.09766 A 42.18671 42.18671 0 0 0 106.42578 64.910156 A 42.18671 42.18671 0 0 0 64.238281 22.724609 z M 64.238281 24.623047 A 40.288406 40.288406 0 0 1 104.52734 64.910156 A 40.288406 40.288406 0 0 1 64.238281 105.19922 A 40.288406 40.288406 0 0 1 23.951172 64.910156 A 40.288406 40.288406 0 0 1 64.238281 24.623047 z "
     id="circle1101" />
  <g
     id="g1142"
     style="opacity:0.18">
    <path
       sodipodi:nodetypes="ccsscc"
       inkscape:connector-curvature="0"
       style="fill:#373737;fill-opacity:0.03626943"
       d="M 64.240234,25.600976 C 48.946451,25.60737 34.853862,31.01408 27.408203,44.373047 l 30.976563,31.743594 c 3.412944,3.497454 9.062374,3.498147 12.474609,0 L 101.32422,44.884766 C 93.969685,31.24906 79.732857,25.617972 64.240234,25.600976 Z"
       id="path1116" />
    <path
       id="path1118"
       d="M 64.240234,25.600976 C 48.946451,25.60737 34.853862,31.01408 27.408203,44.373047 l 30.976563,32.07917 c 3.394516,3.515343 9.081107,3.516322 12.474609,0 L 101.32422,44.884766 C 93.969685,31.24906 79.732857,25.617972 64.240234,25.600976 Z"
       style="fill:#373737;fill-opacity:0.03626942"
       inkscape:connector-curvature="0"
       sodipodi:nodetypes="ccsscc" />
    <path
       sodipodi:nodetypes="ccsscc"
       inkscape:connector-curvature="0"
       style="fill:#373737;fill-opacity:0.03626942"
       d="M 64.240234,25.600976 C 48.946451,25.60737 34.853862,31.01408 27.408203,44.373047 l 30.976563,32.558564 c 3.368374,3.5404 9.107678,3.541772 12.474609,0 L 101.32422,44.884766 C 93.969685,31.24906 79.732857,25.617972 64.240234,25.600976 Z"
       id="path1120" />
    <path
       id="path1122"
       d="M 64.240234,25.600976 C 48.946451,25.60737 34.853862,31.01408 27.408203,44.373047 l 30.976563,32.990019 c 3.345035,3.56246 9.131396,3.564169 12.474609,0 l 30.464845,-32.4783 C 93.969685,31.24906 79.732857,25.617972 64.240234,25.600976 Z"
       style="fill:#373737;fill-opacity:0.03626942"
       inkscape:connector-curvature="0"
       sodipodi:nodetypes="ccsscc" />
    <path
       sodipodi:nodetypes="ccsscc"
       inkscape:connector-curvature="0"
       style="fill:#373737;fill-opacity:0.03626942"
       d="M 64.240234,25.600976 C 48.946451,25.60737 34.853862,31.01408 27.408203,44.373047 l 30.976563,33.229716 c 3.332147,3.574518 9.144493,3.576409 12.474609,0 L 101.32422,44.884766 C 93.969685,31.24906 79.732857,25.617972 64.240234,25.600976 Z"
       id="path1124" />
    <path
       id="path1126"
       d="M 64.240234,25.600976 C 48.946451,25.60737 34.853862,31.01408 27.408203,44.373047 l 30.976563,33.229716 c 3.332147,3.574518 9.144493,3.576409 12.474609,0 L 101.32422,44.884766 C 93.969685,31.24906 79.732857,25.617972 64.240234,25.600976 Z"
       style="fill:#373737;fill-opacity:0.03626942"
       inkscape:connector-curvature="0"
       sodipodi:nodetypes="ccsscc" />
    <path
       sodipodi:nodetypes="ccsscc"
       inkscape:connector-curvature="0"
       style="fill:#161616;fill-opacity:0.39716312"
       d="M 64.240234,25.600976 C 48.946451,25.60737 34.853862,31.01408 27.408203,44.373047 l 30.976563,34.626774 c 3.258155,3.642089 9.219658,3.64495 12.474609,0 L 101.32422,44.884766 C 93.969685,31.24906 79.732857,25.617972 64.240234,25.600976 Z"
       id="path1133" />
  </g>
  <path
     style="fill:#ffffff;fill-opacity:1"
     d="M 64.240234 22.724609 A 42.18671 42.18671 0 0 0 27.408203 44.373047 L 58.384766 75.349609 C 61.840223 78.805067 67.403917 78.805067 70.859375 75.349609 L 101.32422 44.884766 A 42.18671 42.18671 0 0 0 64.240234 22.724609 z "
     id="rect1106" />
</svg>
