<?xml version="1.0" encoding="UTF-8" standalone="no"?>
<!-- Created with Inkscape (http://www.inkscape.org/) -->

<svg
   xmlns:dc="http://purl.org/dc/elements/1.1/"
   xmlns:cc="http://creativecommons.org/ns#"
   xmlns:rdf="http://www.w3.org/1999/02/22-rdf-syntax-ns#"
   xmlns:svg="http://www.w3.org/2000/svg"
   xmlns="http://www.w3.org/2000/svg"
   xmlns:xlink="http://www.w3.org/1999/xlink"
   xmlns:sodipodi="http://sodipodi.sourceforge.net/DTD/sodipodi-0.dtd"
   xmlns:inkscape="http://www.inkscape.org/namespaces/inkscape"
   width="48"
   height="48"
   viewBox="0 0 12.7 12.7"
   version="1.1"
   id="svg8"
   inkscape:version="0.92.3 (2405546, 2018-03-11)"
   sodipodi:docname="openshot.svg">
  <defs
     id="defs2">
    <linearGradient
       inkscape:collect="always"
       id="linearGradient5468">
      <stop
         style="stop-color:#f0eaf4;stop-opacity:1"
         offset="0"
         id="stop5464" />
      <stop
         style="stop-color:#edf0f5;stop-opacity:1"
         offset="1"
         id="stop5466" />
    </linearGradient>
    <linearGradient
       inkscape:collect="always"
       id="linearGradient5406">
      <stop
         style="stop-color:#e9120f;stop-opacity:1"
         offset="0"
         id="stop5402" />
      <stop
         style="stop-color:#e84c4a;stop-opacity:0;"
         offset="1"
         id="stop5404" />
    </linearGradient>
    <linearGradient
       inkscape:collect="always"
       id="linearGradient5396">
      <stop
         style="stop-color:#9fff29;stop-opacity:1"
         offset="0"
         id="stop5392" />
      <stop
         style="stop-color:#9de840;stop-opacity:0;"
         offset="1"
         id="stop5394" />
    </linearGradient>
    <linearGradient
       inkscape:collect="always"
       id="linearGradient5386">
      <stop
         style="stop-color:#ffa90a;stop-opacity:1"
         offset="0"
         id="stop5382" />
      <stop
         style="stop-color:#a715e6;stop-opacity:1"
         offset="1"
         id="stop5384" />
    </linearGradient>
    <linearGradient
       inkscape:collect="always"
       id="linearGradient4743">
      <stop
         style="stop-color:#070700;stop-opacity:1;"
         offset="0"
         id="stop4739" />
      <stop
         style="stop-color:#070700;stop-opacity:0;"
         offset="1"
         id="stop4741" />
    </linearGradient>
    <linearGradient
       inkscape:collect="always"
       xlink:href="#linearGradient4743"
       id="linearGradient4745"
       x1="5.0980649"
       y1="288.00339"
       x2="5.2873673"
       y2="288.72501"
       gradientUnits="userSpaceOnUse" />
    <linearGradient
       inkscape:collect="always"
       xlink:href="#linearGradient5386"
       id="linearGradient5388"
       x1="-35.063305"
       y1="287.77365"
       x2="-26.260044"
       y2="293.13641"
       gradientUnits="userSpaceOnUse" />
    <linearGradient
       inkscape:collect="always"
       xlink:href="#linearGradient5396"
       id="linearGradient5398"
       x1="-35.9352"
       y1="293.13641"
       x2="-34.095798"
       y2="289.78867"
       gradientUnits="userSpaceOnUse" />
    <linearGradient
       inkscape:collect="always"
       xlink:href="#linearGradient5406"
       id="linearGradient5408"
       x1="-28.458733"
       y1="287.50034"
       x2="-29.49608"
       y2="290.76465"
       gradientUnits="userSpaceOnUse" />
    <linearGradient
       inkscape:collect="always"
       xlink:href="#linearGradient5468"
       id="linearGradient5470"
       x1="7.0366588"
       y1="295.28223"
       x2="7.3495502"
       y2="286.21078"
       gradientUnits="userSpaceOnUse" />
  </defs>
  <sodipodi:namedview
     id="base"
     pagecolor="#ffffff"
     bordercolor="#666666"
     borderopacity="1.0"
     inkscape:pageopacity="0.0"
     inkscape:pageshadow="2"
     inkscape:zoom="7"
     inkscape:cx="4.506416"
     inkscape:cy="27.708186"
     inkscape:document-units="mm"
     inkscape:current-layer="layer1"
     showgrid="false"
     units="px"
     showguides="false"
     inkscape:guide-bbox="true"
     inkscape:window-width="1920"
     inkscape:window-height="1025"
     inkscape:window-x="0"
     inkscape:window-y="26"
     inkscape:window-maximized="1" />
  <metadata
     id="metadata5">
    <rdf:RDF>
      <cc:Work
         rdf:about="">
        <dc:format>image/svg+xml</dc:format>
        <dc:type
           rdf:resource="http://purl.org/dc/dcmitype/StillImage" />
        <dc:title />
      </cc:Work>
    </rdf:RDF>
  </metadata>
  <g
     inkscape:label="Capa 1"
     inkscape:groupmode="layer"
     id="layer1"
     transform="translate(0,-284.29998)">
    <g
       id="g4592"
       transform="matrix(1.0147584,0,0,1.0147584,-0.15338727,-4.3781121)">
      <g
         transform="translate(-10.463603,-3.4745039)"
         id="g4683">
        <path
           sodipodi:nodetypes="ccccccsssscccccc"
           inkscape:connector-curvature="0"
           id="path4647"
           d="m 11.306867,292.5807 0.07584,0.59671 1.831261,-0.22113 z m 0.07584,0.59671 0.279771,2.20123 0.177805,1.39897 0.177806,1.39897 c 0.100173,0.78817 0.804752,1.34045 1.579335,1.23852 l 7.642897,-1.00576 c 0.774584,-0.10193 1.317901,-0.81843 1.217727,-1.6066 l -0.269249,-2.11845 -0.110494,-0.86935 -0.110494,-0.86937 c -0.08675,-0.68255 -0.411491,-1.08761 -1.224412,-0.98217 z"
           style="opacity:1;fill:none;fill-opacity:1;stroke:#000000;stroke-width:0.1;stroke-linecap:round;stroke-linejoin:bevel;stroke-miterlimit:4;stroke-dasharray:none;stroke-dashoffset:0;stroke-opacity:0.01176471" />
        <path
           style="opacity:1;fill:none;fill-opacity:1;stroke:#000000;stroke-width:0.2;stroke-linecap:round;stroke-linejoin:bevel;stroke-miterlimit:4;stroke-dasharray:none;stroke-dashoffset:0;stroke-opacity:0.01176471"
           d="m 11.306867,292.5807 0.07584,0.59671 1.831261,-0.22113 z m 0.07584,0.59671 0.279771,2.20123 0.177805,1.39897 0.177806,1.39897 c 0.100173,0.78817 0.804752,1.34045 1.579335,1.23852 l 7.642897,-1.00576 c 0.774584,-0.10193 1.317901,-0.81843 1.217727,-1.6066 l -0.269249,-2.11845 -0.110494,-0.86935 -0.110494,-0.86937 c -0.08675,-0.68255 -0.411491,-1.08761 -1.224412,-0.98217 z"
           id="path4649"
           inkscape:connector-curvature="0"
           sodipodi:nodetypes="ccccccsssscccccc" />
        <path
           sodipodi:nodetypes="ccccccsssscccccc"
           inkscape:connector-curvature="0"
           id="path4651"
           d="m 11.306867,292.5807 0.07584,0.59671 1.831261,-0.22113 z m 0.07584,0.59671 0.279771,2.20123 0.177805,1.39897 0.177806,1.39897 c 0.100173,0.78817 0.804752,1.34045 1.579335,1.23852 l 7.642897,-1.00576 c 0.774584,-0.10193 1.317901,-0.81843 1.217727,-1.6066 l -0.269249,-2.11845 -0.110494,-0.86935 -0.110494,-0.86937 c -0.08675,-0.68255 -0.411491,-1.08761 -1.224412,-0.98217 z"
           style="opacity:1;fill:none;fill-opacity:1;stroke:#000000;stroke-width:0.30000001;stroke-linecap:round;stroke-linejoin:bevel;stroke-miterlimit:4;stroke-dasharray:none;stroke-dashoffset:0;stroke-opacity:0.01176471" />
        <path
           style="opacity:1;fill:none;fill-opacity:1;stroke:#000000;stroke-width:0.40000001;stroke-linecap:round;stroke-linejoin:bevel;stroke-miterlimit:4;stroke-dasharray:none;stroke-dashoffset:0;stroke-opacity:0.01176471"
           d="m 11.306867,292.5807 0.07584,0.59671 1.831261,-0.22113 z m 0.07584,0.59671 0.279771,2.20123 0.177805,1.39897 0.177806,1.39897 c 0.100173,0.78817 0.804752,1.34045 1.579335,1.23852 l 7.642897,-1.00576 c 0.774584,-0.10193 1.317901,-0.81843 1.217727,-1.6066 l -0.269249,-2.11845 -0.110494,-0.86935 -0.110494,-0.86937 c -0.08675,-0.68255 -0.411491,-1.08761 -1.224412,-0.98217 z"
           id="path4653"
           inkscape:connector-curvature="0"
           sodipodi:nodetypes="ccccccsssscccccc" />
        <path
           sodipodi:nodetypes="ccccccsssscccccc"
           inkscape:connector-curvature="0"
           id="path4655"
           d="m 11.306867,292.5807 0.07584,0.59671 1.831261,-0.22113 z m 0.07584,0.59671 0.279771,2.20123 0.177805,1.39897 0.177806,1.39897 c 0.100173,0.78817 0.804752,1.34045 1.579335,1.23852 l 7.642897,-1.00576 c 0.774584,-0.10193 1.317901,-0.81843 1.217727,-1.6066 l -0.269249,-2.11845 -0.110494,-0.86935 -0.110494,-0.86937 c -0.08675,-0.68255 -0.411491,-1.08761 -1.224412,-0.98217 z"
           style="opacity:1;fill:none;fill-opacity:1;stroke:#000000;stroke-width:0.5;stroke-linecap:round;stroke-linejoin:bevel;stroke-miterlimit:4;stroke-dasharray:none;stroke-dashoffset:0;stroke-opacity:0.01176471" />
        <path
           style="opacity:1;fill:none;fill-opacity:1;stroke:#000000;stroke-width:0.60000002;stroke-linecap:round;stroke-linejoin:bevel;stroke-miterlimit:4;stroke-dasharray:none;stroke-dashoffset:0;stroke-opacity:0.01176471"
           d="m 11.306867,292.5807 0.07584,0.59671 1.831261,-0.22113 z m 0.07584,0.59671 0.279771,2.20123 0.177805,1.39897 0.177806,1.39897 c 0.100173,0.78817 0.804752,1.34045 1.579335,1.23852 l 7.642897,-1.00576 c 0.774584,-0.10193 1.317901,-0.81843 1.217727,-1.6066 l -0.269249,-2.11845 -0.110494,-0.86935 -0.110494,-0.86937 c -0.08675,-0.68255 -0.411491,-1.08761 -1.224412,-0.98217 z"
           id="path4657"
           inkscape:connector-curvature="0"
           sodipodi:nodetypes="ccccccsssscccccc" />
        <path
           sodipodi:nodetypes="ccccccsssscccccc"
           inkscape:connector-curvature="0"
           id="path4659"
           d="m 11.306867,292.5807 0.07584,0.59671 1.831261,-0.22113 z m 0.07584,0.59671 0.279771,2.20123 0.177805,1.39897 0.177806,1.39897 c 0.100173,0.78817 0.804752,1.34045 1.579335,1.23852 l 7.642897,-1.00576 c 0.774584,-0.10193 1.317901,-0.81843 1.217727,-1.6066 l -0.269249,-2.11845 -0.110494,-0.86935 -0.110494,-0.86937 c -0.08675,-0.68255 -0.411491,-1.08761 -1.224412,-0.98217 z"
           style="opacity:1;fill:none;fill-opacity:1;stroke:#000000;stroke-width:0.69999999;stroke-linecap:round;stroke-linejoin:bevel;stroke-miterlimit:4;stroke-dasharray:none;stroke-dashoffset:0;stroke-opacity:0.01176471" />
        <path
           style="opacity:1;fill:none;fill-opacity:1;stroke:#000000;stroke-width:0.80000001;stroke-linecap:round;stroke-linejoin:bevel;stroke-miterlimit:4;stroke-dasharray:none;stroke-dashoffset:0;stroke-opacity:0.01176471"
           d="m 11.306867,292.5807 0.07584,0.59671 1.831261,-0.22113 z m 0.07584,0.59671 0.279771,2.20123 0.177805,1.39897 0.177806,1.39897 c 0.100173,0.78817 0.804752,1.34045 1.579335,1.23852 l 7.642897,-1.00576 c 0.774584,-0.10193 1.317901,-0.81843 1.217727,-1.6066 l -0.269249,-2.11845 -0.110494,-0.86935 -0.110494,-0.86937 c -0.08675,-0.68255 -0.411491,-1.08761 -1.224412,-0.98217 z"
           id="path4661"
           inkscape:connector-curvature="0"
           sodipodi:nodetypes="ccccccsssscccccc" />
        <path
           sodipodi:nodetypes="ccccccsssscccccc"
           inkscape:connector-curvature="0"
           id="path4663"
           d="m 11.306867,292.5807 0.07584,0.59671 1.831261,-0.22113 z m 0.07584,0.59671 0.279771,2.20123 0.177805,1.39897 0.177806,1.39897 c 0.100173,0.78817 0.804752,1.34045 1.579335,1.23852 l 7.642897,-1.00576 c 0.774584,-0.10193 1.317901,-0.81843 1.217727,-1.6066 l -0.269249,-2.11845 -0.110494,-0.86935 -0.110494,-0.86937 c -0.08675,-0.68255 -0.411491,-1.08761 -1.224412,-0.98217 z"
           style="opacity:1;fill:none;fill-opacity:1;stroke:#000000;stroke-width:0.89999998;stroke-linecap:round;stroke-linejoin:bevel;stroke-miterlimit:4;stroke-dasharray:none;stroke-dashoffset:0;stroke-opacity:0.01176471" />
        <path
           style="opacity:1;fill:none;fill-opacity:1;stroke:#000000;stroke-width:1;stroke-linecap:round;stroke-linejoin:bevel;stroke-miterlimit:4;stroke-dasharray:none;stroke-dashoffset:0;stroke-opacity:0.01176471"
           d="m 11.306867,292.5807 0.07584,0.59671 1.831261,-0.22113 z m 0.07584,0.59671 0.279771,2.20123 0.177805,1.39897 0.177806,1.39897 c 0.100173,0.78817 0.804752,1.34045 1.579335,1.23852 l 7.642897,-1.00576 c 0.774584,-0.10193 1.317901,-0.81843 1.217727,-1.6066 l -0.269249,-2.11845 -0.110494,-0.86935 -0.110494,-0.86937 c -0.08675,-0.68255 -0.411491,-1.08761 -1.224412,-0.98217 z"
           id="path4665"
           inkscape:connector-curvature="0"
           sodipodi:nodetypes="ccccccsssscccccc" />
        <path
           sodipodi:nodetypes="ccccccsssscccccc"
           inkscape:connector-curvature="0"
           id="path4667"
           d="m 11.306867,292.5807 0.07584,0.59671 1.831261,-0.22113 z m 0.07584,0.59671 0.279771,2.20123 0.177805,1.39897 0.177806,1.39897 c 0.100173,0.78817 0.804752,1.34045 1.579335,1.23852 l 7.642897,-1.00576 c 0.774584,-0.10193 1.317901,-0.81843 1.217727,-1.6066 l -0.269249,-2.11845 -0.110494,-0.86935 -0.110494,-0.86937 c -0.08675,-0.68255 -0.411491,-1.08761 -1.224412,-0.98217 z"
           style="opacity:1;fill:none;fill-opacity:1;stroke:#000000;stroke-width:1.20000005;stroke-linecap:round;stroke-linejoin:bevel;stroke-miterlimit:4;stroke-dasharray:none;stroke-dashoffset:0;stroke-opacity:0.01176471" />
        <path
           style="opacity:1;fill:none;fill-opacity:1;stroke:#000000;stroke-width:1.39999998;stroke-linecap:round;stroke-linejoin:bevel;stroke-miterlimit:4;stroke-dasharray:none;stroke-dashoffset:0;stroke-opacity:0.01176471"
           d="m 11.306867,292.5807 0.07584,0.59671 1.831261,-0.22113 z m 0.07584,0.59671 0.279771,2.20123 0.177805,1.39897 0.177806,1.39897 c 0.100173,0.78817 0.804752,1.34045 1.579335,1.23852 l 7.642897,-1.00576 c 0.774584,-0.10193 1.317901,-0.81843 1.217727,-1.6066 l -0.269249,-2.11845 -0.110494,-0.86935 -0.110494,-0.86937 c -0.08675,-0.68255 -0.411491,-1.08761 -1.224412,-0.98217 z"
           id="path4669"
           inkscape:connector-curvature="0"
           sodipodi:nodetypes="ccccccsssscccccc" />
      </g>
      <g
         style="opacity:0.40400002"
         id="g4735"
         transform="translate(-10.463603,-3.4745039)">
        <path
           style="opacity:1;fill:none;fill-opacity:1;stroke:#000000;stroke-width:0.1;stroke-linecap:round;stroke-linejoin:bevel;stroke-miterlimit:4;stroke-dasharray:none;stroke-dashoffset:0;stroke-opacity:0.01176471"
           d="m 11.306867,292.5807 0.07584,0.59671 1.831261,-0.22113 z m 0.07584,0.59671 0.279771,2.20123 0.177805,1.39897 0.177806,1.39897 c 0.100173,0.78817 0.804752,1.34045 1.579335,1.23852 l 7.642897,-1.00576 c 0.774584,-0.10193 1.317901,-0.81843 1.217727,-1.6066 l -0.269249,-2.11845 -0.110494,-0.86935 -0.110494,-0.86937 c -0.08675,-0.68255 -0.411491,-1.08761 -1.224412,-0.98217 z"
           id="path4711"
           inkscape:connector-curvature="0"
           sodipodi:nodetypes="ccccccsssscccccc" />
        <path
           sodipodi:nodetypes="ccccccsssscccccc"
           inkscape:connector-curvature="0"
           id="path4713"
           d="m 11.306867,292.5807 0.07584,0.59671 1.831261,-0.22113 z m 0.07584,0.59671 0.279771,2.20123 0.177805,1.39897 0.177806,1.39897 c 0.100173,0.78817 0.804752,1.34045 1.579335,1.23852 l 7.642897,-1.00576 c 0.774584,-0.10193 1.317901,-0.81843 1.217727,-1.6066 l -0.269249,-2.11845 -0.110494,-0.86935 -0.110494,-0.86937 c -0.08675,-0.68255 -0.411491,-1.08761 -1.224412,-0.98217 z"
           style="opacity:1;fill:none;fill-opacity:1;stroke:#000000;stroke-width:0.2;stroke-linecap:round;stroke-linejoin:bevel;stroke-miterlimit:4;stroke-dasharray:none;stroke-dashoffset:0;stroke-opacity:0.01176471" />
        <path
           style="opacity:1;fill:none;fill-opacity:1;stroke:#000000;stroke-width:0.30000001;stroke-linecap:round;stroke-linejoin:bevel;stroke-miterlimit:4;stroke-dasharray:none;stroke-dashoffset:0;stroke-opacity:0.01176471"
           d="m 11.306867,292.5807 0.07584,0.59671 1.831261,-0.22113 z m 0.07584,0.59671 0.279771,2.20123 0.177805,1.39897 0.177806,1.39897 c 0.100173,0.78817 0.804752,1.34045 1.579335,1.23852 l 7.642897,-1.00576 c 0.774584,-0.10193 1.317901,-0.81843 1.217727,-1.6066 l -0.269249,-2.11845 -0.110494,-0.86935 -0.110494,-0.86937 c -0.08675,-0.68255 -0.411491,-1.08761 -1.224412,-0.98217 z"
           id="path4715"
           inkscape:connector-curvature="0"
           sodipodi:nodetypes="ccccccsssscccccc" />
        <path
           sodipodi:nodetypes="ccccccsssscccccc"
           inkscape:connector-curvature="0"
           id="path4717"
           d="m 11.306867,292.5807 0.07584,0.59671 1.831261,-0.22113 z m 0.07584,0.59671 0.279771,2.20123 0.177805,1.39897 0.177806,1.39897 c 0.100173,0.78817 0.804752,1.34045 1.579335,1.23852 l 7.642897,-1.00576 c 0.774584,-0.10193 1.317901,-0.81843 1.217727,-1.6066 l -0.269249,-2.11845 -0.110494,-0.86935 -0.110494,-0.86937 c -0.08675,-0.68255 -0.411491,-1.08761 -1.224412,-0.98217 z"
           style="opacity:1;fill:none;fill-opacity:1;stroke:#000000;stroke-width:0.40000001;stroke-linecap:round;stroke-linejoin:bevel;stroke-miterlimit:4;stroke-dasharray:none;stroke-dashoffset:0;stroke-opacity:0.01176471" />
        <path
           style="opacity:1;fill:none;fill-opacity:1;stroke:#000000;stroke-width:0.5;stroke-linecap:round;stroke-linejoin:bevel;stroke-miterlimit:4;stroke-dasharray:none;stroke-dashoffset:0;stroke-opacity:0.01176471"
           d="m 11.306867,292.5807 0.07584,0.59671 1.831261,-0.22113 z m 0.07584,0.59671 0.279771,2.20123 0.177805,1.39897 0.177806,1.39897 c 0.100173,0.78817 0.804752,1.34045 1.579335,1.23852 l 7.642897,-1.00576 c 0.774584,-0.10193 1.317901,-0.81843 1.217727,-1.6066 l -0.269249,-2.11845 -0.110494,-0.86935 -0.110494,-0.86937 c -0.08675,-0.68255 -0.411491,-1.08761 -1.224412,-0.98217 z"
           id="path4719"
           inkscape:connector-curvature="0"
           sodipodi:nodetypes="ccccccsssscccccc" />
        <path
           sodipodi:nodetypes="ccccccsssscccccc"
           inkscape:connector-curvature="0"
           id="path4721"
           d="m 11.306867,292.5807 0.07584,0.59671 1.831261,-0.22113 z m 0.07584,0.59671 0.279771,2.20123 0.177805,1.39897 0.177806,1.39897 c 0.100173,0.78817 0.804752,1.34045 1.579335,1.23852 l 7.642897,-1.00576 c 0.774584,-0.10193 1.317901,-0.81843 1.217727,-1.6066 l -0.269249,-2.11845 -0.110494,-0.86935 -0.110494,-0.86937 c -0.08675,-0.68255 -0.411491,-1.08761 -1.224412,-0.98217 z"
           style="opacity:1;fill:none;fill-opacity:1;stroke:#000000;stroke-width:0.60000002;stroke-linecap:round;stroke-linejoin:bevel;stroke-miterlimit:4;stroke-dasharray:none;stroke-dashoffset:0;stroke-opacity:0.01176471" />
        <path
           style="opacity:1;fill:none;fill-opacity:1;stroke:#000000;stroke-width:0.69999999;stroke-linecap:round;stroke-linejoin:bevel;stroke-miterlimit:4;stroke-dasharray:none;stroke-dashoffset:0;stroke-opacity:0.01176471"
           d="m 11.306867,292.5807 0.07584,0.59671 1.831261,-0.22113 z m 0.07584,0.59671 0.279771,2.20123 0.177805,1.39897 0.177806,1.39897 c 0.100173,0.78817 0.804752,1.34045 1.579335,1.23852 l 7.642897,-1.00576 c 0.774584,-0.10193 1.317901,-0.81843 1.217727,-1.6066 l -0.269249,-2.11845 -0.110494,-0.86935 -0.110494,-0.86937 c -0.08675,-0.68255 -0.411491,-1.08761 -1.224412,-0.98217 z"
           id="path4723"
           inkscape:connector-curvature="0"
           sodipodi:nodetypes="ccccccsssscccccc" />
        <path
           sodipodi:nodetypes="ccccccsssscccccc"
           inkscape:connector-curvature="0"
           id="path4725"
           d="m 11.306867,292.5807 0.07584,0.59671 1.831261,-0.22113 z m 0.07584,0.59671 0.279771,2.20123 0.177805,1.39897 0.177806,1.39897 c 0.100173,0.78817 0.804752,1.34045 1.579335,1.23852 l 7.642897,-1.00576 c 0.774584,-0.10193 1.317901,-0.81843 1.217727,-1.6066 l -0.269249,-2.11845 -0.110494,-0.86935 -0.110494,-0.86937 c -0.08675,-0.68255 -0.411491,-1.08761 -1.224412,-0.98217 z"
           style="opacity:1;fill:none;fill-opacity:1;stroke:#000000;stroke-width:0.80000001;stroke-linecap:round;stroke-linejoin:bevel;stroke-miterlimit:4;stroke-dasharray:none;stroke-dashoffset:0;stroke-opacity:0.01176471" />
        <path
           style="opacity:1;fill:none;fill-opacity:1;stroke:#000000;stroke-width:0.89999998;stroke-linecap:round;stroke-linejoin:bevel;stroke-miterlimit:4;stroke-dasharray:none;stroke-dashoffset:0;stroke-opacity:0.01176471"
           d="m 11.306867,292.5807 0.07584,0.59671 1.831261,-0.22113 z m 0.07584,0.59671 0.279771,2.20123 0.177805,1.39897 0.177806,1.39897 c 0.100173,0.78817 0.804752,1.34045 1.579335,1.23852 l 7.642897,-1.00576 c 0.774584,-0.10193 1.317901,-0.81843 1.217727,-1.6066 l -0.269249,-2.11845 -0.110494,-0.86935 -0.110494,-0.86937 c -0.08675,-0.68255 -0.411491,-1.08761 -1.224412,-0.98217 z"
           id="path4727"
           inkscape:connector-curvature="0"
           sodipodi:nodetypes="ccccccsssscccccc" />
        <path
           sodipodi:nodetypes="ccccccsssscccccc"
           inkscape:connector-curvature="0"
           id="path4729"
           d="m 11.306867,292.5807 0.07584,0.59671 1.831261,-0.22113 z m 0.07584,0.59671 0.279771,2.20123 0.177805,1.39897 0.177806,1.39897 c 0.100173,0.78817 0.804752,1.34045 1.579335,1.23852 l 7.642897,-1.00576 c 0.774584,-0.10193 1.317901,-0.81843 1.217727,-1.6066 l -0.269249,-2.11845 -0.110494,-0.86935 -0.110494,-0.86937 c -0.08675,-0.68255 -0.411491,-1.08761 -1.224412,-0.98217 z"
           style="opacity:1;fill:none;fill-opacity:1;stroke:#000000;stroke-width:1;stroke-linecap:round;stroke-linejoin:bevel;stroke-miterlimit:4;stroke-dasharray:none;stroke-dashoffset:0;stroke-opacity:0.01176471" />
        <path
           style="opacity:1;fill:none;fill-opacity:1;stroke:#000000;stroke-width:1.20000005;stroke-linecap:round;stroke-linejoin:bevel;stroke-miterlimit:4;stroke-dasharray:none;stroke-dashoffset:0;stroke-opacity:0.01176471"
           d="m 11.306867,292.5807 0.07584,0.59671 1.831261,-0.22113 z m 0.07584,0.59671 0.279771,2.20123 0.177805,1.39897 0.177806,1.39897 c 0.100173,0.78817 0.804752,1.34045 1.579335,1.23852 l 7.642897,-1.00576 c 0.774584,-0.10193 1.317901,-0.81843 1.217727,-1.6066 l -0.269249,-2.11845 -0.110494,-0.86935 -0.110494,-0.86937 c -0.08675,-0.68255 -0.411491,-1.08761 -1.224412,-0.98217 z"
           id="path4731"
           inkscape:connector-curvature="0"
           sodipodi:nodetypes="ccccccsssscccccc" />
        <path
           sodipodi:nodetypes="ccccccsssscccccc"
           inkscape:connector-curvature="0"
           id="path4733"
           d="m 11.306867,292.5807 0.07584,0.59671 1.831261,-0.22113 z m 0.07584,0.59671 0.279771,2.20123 0.177805,1.39897 0.177806,1.39897 c 0.100173,0.78817 0.804752,1.34045 1.579335,1.23852 l 7.642897,-1.00576 c 0.774584,-0.10193 1.317901,-0.81843 1.217727,-1.6066 l -0.269249,-2.11845 -0.110494,-0.86935 -0.110494,-0.86937 c -0.08675,-0.68255 -0.411491,-1.08761 -1.224412,-0.98217 z"
           style="opacity:1;fill:none;fill-opacity:1;stroke:#000000;stroke-width:1.39999998;stroke-linecap:round;stroke-linejoin:bevel;stroke-miterlimit:4;stroke-dasharray:none;stroke-dashoffset:0;stroke-opacity:0.01176471" />
      </g>
      <path
         sodipodi:nodetypes="cccc"
         inkscape:connector-curvature="0"
         id="path4737"
         d="m 11.073753,287.12832 -8.9381875,2.7657 -0.1511905,-1.32291 z"
         style="fill:url(#linearGradient4745);fill-opacity:1;stroke:none;stroke-width:0.26458332px;stroke-linecap:butt;stroke-linejoin:miter;stroke-opacity:1" />
      <path
         sodipodi:nodetypes="csccscccccccssssccccc"
         inkscape:connector-curvature="0"
         id="rect4485"
         d="m 11.311576,286.2689 -0.0647,-0.50034 c -0.05222,-0.40382 -0.419778,-0.68718 -0.823598,-0.63495 l -8.803415,1.99462 c -0.82599976,0.10682 -1.40531487,0.85823 -1.29849164,1.68423 l 0.0808742,0.62535 1.95281914,-0.23174 8.4330853,-1.96875 c 0.6842,-0.17187 0.564771,-0.61129 0.523432,-0.96842 z m -10.90933548,3.16891 0.29834208,2.3069 0.18960834,1.46612 0.18960786,1.46613 c 0.1068233,0.826 0.8581708,1.40479 1.6841703,1.29797 l 8.1502279,-1.05404 c 0.826,-0.10682 1.405382,-0.85772 1.298559,-1.68372 l -0.287122,-2.22014 -0.117828,-0.91108 -0.117828,-0.9111 c -0.09251,-0.71532 -0.438806,-1.13982 -1.305689,-1.02932 z"
         style="opacity:1;fill:url(#linearGradient5470);fill-opacity:1;stroke:none;stroke-width:0.5;stroke-linecap:round;stroke-linejoin:bevel;stroke-miterlimit:4;stroke-dasharray:none;stroke-dashoffset:0;stroke-opacity:0.08677685" />
      <rect
         transform="rotate(-7.3689411)"
         ry="0.67485189"
         rx="0.67485189"
         y="287.85785"
         x="-35.9352"
         height="5.2785788"
         width="9.6751566"
         id="rect4495"
         style="opacity:1;fill:url(#linearGradient5388);fill-opacity:1;stroke:none;stroke-width:0.5;stroke-linecap:round;stroke-linejoin:bevel;stroke-miterlimit:4;stroke-dasharray:none;stroke-dashoffset:0;stroke-opacity:0.08677685" />
      <rect
         transform="rotate(1.5507789)"
         style="opacity:0.34299999;fill:none;fill-opacity:1;stroke:none;stroke-width:0.5;stroke-linecap:round;stroke-linejoin:bevel;stroke-miterlimit:4;stroke-dasharray:none;stroke-dashoffset:0;stroke-opacity:0.08677685"
         id="rect4645"
         width="9.6751566"
         height="5.2785788"
         x="9.250639"
         y="289.18661"
         rx="0.67485189"
         ry="0.67485189" />
      <rect
         style="opacity:1;fill:url(#linearGradient5398);fill-opacity:1;stroke:none;stroke-width:0.5;stroke-linecap:round;stroke-linejoin:bevel;stroke-miterlimit:4;stroke-dasharray:none;stroke-dashoffset:0;stroke-opacity:0.08677685"
         id="rect5390"
         width="9.6751566"
         height="5.2785788"
         x="-35.9352"
         y="287.85785"
         rx="0.67485189"
         ry="0.67485189"
         transform="rotate(-7.3689411)" />
      <rect
         transform="rotate(-7.3689411)"
         ry="0.67485189"
         rx="0.67485189"
         y="287.85785"
         x="-35.9352"
         height="5.2785788"
         width="9.6751566"
         id="rect5400"
         style="opacity:1;fill:url(#linearGradient5408);fill-opacity:1;stroke:none;stroke-width:0.5;stroke-linecap:round;stroke-linejoin:bevel;stroke-miterlimit:4;stroke-dasharray:none;stroke-dashoffset:0;stroke-opacity:0.08677685" />
      <rect
         transform="rotate(-7.3689411)"
         ry="0.67485189"
         rx="0.67485189"
         y="287.85785"
         x="-35.9352"
         height="5.2785788"
         width="9.6751566"
         id="rect5472"
         style="opacity:1;fill:none;fill-opacity:1;stroke:#ffffff;stroke-width:0.1;stroke-linecap:round;stroke-linejoin:bevel;stroke-miterlimit:4;stroke-dasharray:none;stroke-dashoffset:0;stroke-opacity:1" />
      <path
         id="path5474"
         transform="matrix(0.26458333,0,0,0.26458333,0,284.29998)"
         d="m 35.902344,3.9414062 -4.357422,0.9882813 6.748047,6.7519535 2.480469,-0.580079 c 0.730184,-0.183421 1.200611,-0.452675 1.521484,-0.767578 z m -8.214844,1.8613282 -4.355469,0.9882812 6.796875,6.7968754 4.332032,-1.011719 z m -8.154297,1.8476562 -4.357422,0.9882813 6.845703,6.8417971 4.333985,-1.013672 z m -8.263672,1.8730469 -4.3574216,0.9863285 6.8886716,6.888672 4.332031,-1.011719 z"
         style="color:#000000;font-style:normal;font-variant:normal;font-weight:normal;font-stretch:normal;font-size:medium;line-height:normal;font-family:sans-serif;font-variant-ligatures:normal;font-variant-position:normal;font-variant-caps:normal;font-variant-numeric:normal;font-variant-alternates:normal;font-feature-settings:normal;text-indent:0;text-align:start;text-decoration:none;text-decoration-line:none;text-decoration-style:solid;text-decoration-color:#000000;letter-spacing:normal;word-spacing:normal;text-transform:none;writing-mode:lr-tb;direction:ltr;text-orientation:mixed;dominant-baseline:auto;baseline-shift:baseline;text-anchor:start;white-space:normal;shape-padding:0;clip-rule:nonzero;display:inline;overflow:visible;visibility:visible;opacity:1;isolation:auto;mix-blend-mode:normal;color-interpolation:sRGB;color-interpolation-filters:linearRGB;solid-color:#000000;solid-opacity:1;vector-effect:none;fill:#1a1a1a;fill-opacity:1;fill-rule:nonzero;stroke:none;stroke-width:3.77952766;stroke-linecap:butt;stroke-linejoin:miter;stroke-miterlimit:4;stroke-dasharray:none;stroke-dashoffset:0;stroke-opacity:1;color-rendering:auto;image-rendering:auto;shape-rendering:auto;text-rendering:auto;enable-background:accumulate"
         inkscape:connector-curvature="0" />
      <path
         id="path5498"
         transform="matrix(0.26458333,0,0,0.26458333,0,284.29998)"
         d="m 2.9785156,12.167969 c -1.2942931,1.205429 -2.00872754,2.99185 -1.7636718,4.886719 l 0.3046874,2.363281 0.5371094,4.152343 6.84375,-5.027343 z"
         style="fill:#333333;fill-opacity:1;stroke:none;stroke-width:0.99999994px;stroke-linecap:butt;stroke-linejoin:miter;stroke-opacity:1"
         inkscape:connector-curvature="0" />
      <circle
         r="0.5433408"
         cy="288.92548"
         cx="1.0536087"
         id="path5549"
         style="opacity:1;fill:#ffffff;fill-opacity:1;stroke:none;stroke-width:1;stroke-miterlimit:4;stroke-dasharray:none;stroke-opacity:1" />
    </g>
  </g>
</svg>
